
<svg viewBox="0 0 512 512.001" xmlns="http://www.w3.org/2000/svg">
  <path d="M511.996 295.332c0-136.262-105.48-245.203-236-255.227V20c0-11.047-8.953-20-20-20s-20 8.953-20 20v20.105C105.668 50.113 0 158.844 0 295.422c.078 17.566 21.527 26.668 34.137 14.055 34.418-34.418 81.707-36.914 119.355.125 7.867 7.726 20.446 7.574 28.145-.125 12.918-12.918 32.422-21.809 54.36-25.2v168.391c0 10.66-8.673 19.332-19.333 19.332-10.664 0-19.336-8.672-19.336-19.332v-39.332c0-11.047-8.953-20-20-20s-20 8.953-20 20v39.332c0 32.719 26.617 59.332 59.336 59.332 32.715 0 59.332-26.613 59.332-59.332v-168.39c38.137 5.894 52.844 24.644 57.39 27.683 7.673 5.144 18.337 4.43 25.25-2.484 34.419-34.418 81.708-36.915 119.356.125 12.496 12.27 34.004 3.52 34.004-14.27zm-323.293-38.418c4.02-62.488 17.39-104.227 28.918-129.457 16.566-36.277 33.922-47.965 38.371-48.125 4.457.16 21.813 11.848 38.383 48.125 11.523 25.23 24.895 66.969 28.914 129.457-40.316-18.64-93.156-19.156-134.586 0zm-144.797-2.766c15.297-79.648 74.297-142.75 148.867-165.46-28.628 48.148-40.652 111.59-44.105 167.992-33.445-17.653-70.79-18.559-104.762-2.532zm319.418 2.532c-3.418-55.801-15.3-119.555-44.097-167.989 74.543 22.707 133.558 85.782 148.859 165.457-33.961-16.02-71.3-15.128-104.762 2.532zm0 0"/>
</svg>